<svg width="442" height="442" viewBox="0 0 442 442" fill="none" xmlns="http://www.w3.org/2000/svg">
<circle cx="130" cy="150.222" r="24.5555" fill="#B5DEDE"/>
<circle cx="235.444" cy="150.222" r="24.5555" fill="#B5DEDE"/>
<path d="M128.556 244.111C155.838 220.289 205.855 217.887 238.333 244.111" stroke="#B5DEDE" stroke-width="24.5555" stroke-linecap="round"/>
<path fill-rule="evenodd" clip-rule="evenodd" d="M81.7344 30.9941C111.978 10.786 147.535 0 183.908 0H183.909C232.683 0.00310469 279.459 19.38 313.948 53.8685C348.436 88.3571 367.813 135.133 367.816 183.907V183.908C367.816 220.282 357.03 255.838 336.822 286.082C316.614 316.325 287.892 339.897 254.287 353.817C220.682 367.736 183.704 371.378 148.03 364.282C112.355 357.186 79.5856 339.671 53.8656 313.951C28.1456 288.231 10.63 255.461 3.53389 219.787C-3.56225 184.112 0.0797442 147.134 13.9993 113.529C27.9189 79.9247 51.4908 51.2022 81.7344 30.9941ZM183.907 34C154.258 34.0002 125.276 42.7921 100.624 59.264C75.9715 75.7362 56.7574 99.1486 45.4112 126.541C34.065 153.933 31.0963 184.074 36.8806 213.154C42.6648 242.233 56.9422 268.944 77.9072 289.909C98.8722 310.874 125.583 325.151 154.663 330.936C183.742 336.72 213.883 333.751 241.276 322.405C268.668 311.059 292.08 291.845 308.552 267.193C325.024 242.541 333.816 213.558 333.816 183.909M183.908 34C223.665 34.0028 261.793 49.7975 289.906 77.9102C318.019 106.023 333.813 144.151 333.816 183.908" fill="#B5DEDE"/>
<path fill-rule="evenodd" clip-rule="evenodd" d="M296.412 296.413C303.051 289.774 313.815 289.774 320.454 296.413L437.021 412.98C443.66 419.618 443.66 430.382 437.021 437.021C430.382 443.66 419.618 443.66 412.979 437.021L296.412 320.454C289.773 313.815 289.773 303.052 296.412 296.413Z" fill="#B5DEDE"/>
</svg>
