<svg width="25" height="29" viewBox="0 0 25 29" fill="none" xmlns="http://www.w3.org/2000/svg">
<g opacity="0.55" clip-path="url(#clip0_2_528)">
<path d="M9.54435 22.5488C9.6675 23.1353 9.54435 23.5802 9.11331 24.0251C8.64123 24.4903 8.2923 25.0767 7.77916 25.5014C6.87604 26.2497 6.0345 26.2901 5.0698 25.6025C4.74139 25.3801 4.45404 25.1172 4.12563 24.8947C3.87932 24.7127 3.96143 24.4903 4.04353 24.3285C4.14615 24.0858 4.35141 24.2071 4.49509 24.3082C4.70034 24.4296 4.86455 24.5711 5.04927 24.7329C5.72661 25.3194 5.99345 25.3194 6.67079 24.7127C7.14287 24.288 7.55338 23.8229 8.00494 23.3982C8.43597 22.9533 8.90806 22.6297 9.54435 22.5488Z" fill="#CEDADC"/>
<path d="M0.328454 5.21767C0.184776 5.05588 0.287403 4.95477 0.369505 4.85365C1.10842 3.96383 1.88839 3.07402 2.72993 2.28531C3.03781 1.98197 3.32517 2.00219 3.592 2.34598C3.98198 2.85156 4.37197 3.35714 4.78248 3.86272C4.82353 3.92339 4.86458 3.96383 4.8851 3.98406C5.02878 4.20651 4.86458 4.26718 4.78248 4.34807C3.83831 5.19745 2.97624 6.12771 2.15522 7.11865C1.94996 7.36132 1.82681 7.3411 1.66261 7.09842C1.23157 6.45128 0.780014 5.82436 0.328454 5.21767Z" fill="#CEDADC"/>
<path d="M4.28982 22.8925C3.75616 23.3981 3.42775 24.0452 3.40722 24.8339C3.09934 24.6317 3.09934 24.4295 3.16092 24.207C3.5509 22.9127 3.34565 21.6185 3.24302 20.3242C3.11987 18.8681 2.89409 17.4323 2.68883 15.9762C2.58621 15.1673 2.38095 14.3583 2.11412 13.5899C1.23153 11.0822 0.636289 8.49363 0 5.80396C0.389984 6.06686 0.533662 6.3702 0.697865 6.6331C1.31363 7.54315 2.07307 8.33185 2.93514 9.01944C3.09934 9.161 3.28407 9.26211 3.48933 9.34301C3.92036 9.54524 4.22824 9.80814 4.31034 10.3542C4.5156 11.5069 4.90558 12.6394 5.06979 13.8123C5.33662 15.774 5.54187 17.7558 5.4803 19.7175C5.45977 20.9107 5.19294 22.0027 4.28982 22.8925Z" fill="#CEDADC"/>
<path d="M5.06973 4.55017C5.09026 4.52995 5.13131 4.50973 5.17236 4.4895C5.41867 4.4895 5.43919 4.73218 5.56235 4.85352C5.70602 4.97486 5.70602 5.11642 5.56235 5.25798C4.7208 6.20847 3.85873 7.15896 3.01719 8.08922C2.93509 8.19034 2.81193 8.29145 2.72983 8.10945C2.60668 7.88699 2.05249 7.8061 2.31932 7.48253C3.14034 6.43092 4.06399 5.46021 5.06973 4.55017Z" fill="#CEDADC"/>
<path d="M3.38668 8.21068C4.22822 7.26019 5.09029 6.32992 5.93183 5.39966C6.50654 5.96591 6.50654 6.02658 5.99341 6.5726C5.37764 7.21974 4.76188 7.86688 4.16664 8.51402C4.08454 8.59492 4.00244 8.69603 3.89981 8.77692C3.63298 8.93871 3.44825 8.7567 3.28405 8.59492C3.05827 8.41291 3.28405 8.31179 3.38668 8.21068Z" fill="#CEDADC"/>
<path d="M12.541 17.9986C13.1363 18.5649 12.9105 19.1716 12.5821 19.7378C12.0484 20.6479 11.5969 21.6186 10.7553 22.3062C10.4474 22.5488 10.4269 22.9533 10.3448 23.3173C10.0164 23.196 10.0575 22.9735 10.119 22.7915C10.5501 21.3152 10.2832 19.8187 10.2422 18.3222C10.2217 17.4122 10.3243 16.5628 10.5706 15.6123C11.2479 16.219 11.7611 16.9066 12.2742 17.574C12.3768 17.7155 12.4179 17.8773 12.541 17.9986Z" fill="#CEDADC"/>
<path d="M12.5821 10.6374C13.3416 8.14991 13.9778 5.66247 14.5115 3.11435C14.6962 2.22453 14.922 1.33471 15.4557 0.566232C15.5788 0.384224 15.6609 0.141546 15.9893 0.262885C16.2972 0.384224 16.2356 0.606679 16.2356 0.849356C16.2356 1.86051 15.9893 2.89189 16.0304 3.88283C16.092 5.37934 15.702 6.81519 15.5583 8.27125C15.4762 9.05996 15.2709 9.82844 14.9015 10.516C14.6347 11.0014 14.2857 11.4058 13.6084 11.5474C13.5673 11.5474 13.4442 11.5676 13.321 11.5676C12.3974 11.5879 12.3153 11.4867 12.5821 10.6374Z" fill="#CEDADC"/>
<path d="M16.523 4.02442C16.5025 3.9233 16.5025 3.80196 16.6462 3.78174C16.6872 3.78174 16.7283 3.78174 16.7488 3.80196C17.7545 4.06486 18.7808 4.14575 19.7866 4.30754C19.8687 4.32776 19.9508 4.36821 20.0329 4.40866C19.9918 4.50977 19.9713 4.61089 19.9097 4.67156C19.8071 4.7929 19.6634 4.7929 19.5197 4.7929C18.6782 4.73223 17.8367 4.61089 16.9951 4.4491C16.7283 4.40866 16.5435 4.30754 16.523 4.02442Z" fill="#CEDADC"/>
<path d="M20.2586 3.47836C20.1354 3.64014 20.3817 4.06483 19.8686 3.96371C18.8834 3.80193 17.8981 3.70081 16.9334 3.47836C16.6871 3.41769 16.564 3.35702 16.6256 3.05367C16.6871 2.79077 16.7692 2.70988 17.0566 2.75033C18.0418 2.85144 19.0065 3.03345 19.9917 3.2559C20.0944 3.27613 20.238 3.29635 20.2586 3.47836Z" fill="#CEDADC"/>
<path d="M16.6051 0H19.8892C20.546 0.262901 20.7923 0.70781 20.7512 1.47629C20.7512 1.51674 20.7512 1.53696 20.7307 1.57741C20.587 2.9728 20.546 2.99303 19.1708 2.73013C18.514 2.60879 17.8572 2.48745 17.2003 2.42678C16.8514 2.38633 16.6872 2.32566 16.7488 1.9212C16.8104 1.59763 16.7693 1.25384 16.7898 0.910042C16.8104 0.586471 16.7898 0.262901 16.6051 0Z" fill="#CEDADC"/>
<path d="M25 29H16.3382C16.133 28.2517 15.9072 27.4024 15.702 26.553C15.2093 24.652 14.7578 22.7106 14.6346 21.9219C14.5936 21.6185 14.532 21.3354 14.4499 21.0321C13.9162 18.9693 12.7668 17.2099 11.3095 15.6123C10.7348 14.9853 10.0985 14.3989 9.44169 13.8528C7.69703 12.4372 6.07552 10.88 4.41295 9.38353C4.14612 9.14085 4.18717 9.01951 4.41295 8.77684C5.04924 8.1297 5.64448 7.48255 6.23972 6.83541C6.50655 6.53207 6.65023 6.4714 6.95811 6.83541C8.06648 8.19036 9.13381 9.56554 10.4474 10.7385C10.9606 11.2036 11.5353 11.6081 12.1921 11.8508C13.4442 12.2957 14.4704 12.0125 15.1683 11.0418C15.2504 10.9205 15.3325 10.7789 15.4146 10.6374C15.8867 9.68688 16.0304 8.67572 16.174 7.64434C16.2972 6.85564 16.4203 6.06693 16.523 5.25801C16.5435 5.15689 16.564 5.09622 16.6051 5.03555C16.6461 4.83332 16.7282 4.77265 16.9951 4.8131C17.7134 4.93444 18.4318 5.03555 19.1502 5.11645C19.2734 5.11645 19.3965 5.13667 19.5197 5.13667C19.7865 5.13667 19.8481 5.19734 19.807 5.46024C19.4992 7.94769 19.376 10.4554 18.6987 12.9024C18.3908 14.0349 18.555 15.1269 18.8423 16.2392C19.3144 18.0188 24.4868 27.8473 25 29Z" fill="#CEDADC"/>
</g>
<defs>
<clipPath id="clip0_2_528">
<rect width="25" height="29" fill="white"/>
</clipPath>
</defs>
</svg>
