<svg width="42" height="51" viewBox="0 0 42 51" fill="none" xmlns="http://www.w3.org/2000/svg">
<path d="M42 42.2012C42 44.6139 41.3164 46.6836 39.9492 48.4102C38.582 50.1367 36.9359 51 35.0109 51H6.98906C5.06406 51 3.41797 50.1367 2.05078 48.4102C0.683594 46.6836 0 44.6139 0 42.2012C0 40.3197 0.0929688 38.5433 0.278906 36.8721C0.464844 35.2008 0.809375 33.5186 1.3125 31.8252C1.81562 30.1318 2.45547 28.682 3.23203 27.4756C4.00859 26.2692 5.03672 25.2842 6.31641 24.5205C7.59609 23.7568 9.06719 23.375 10.7297 23.375C13.5953 26.2083 17.0187 27.625 21 27.625C24.9813 27.625 28.4047 26.2083 31.2703 23.375C32.9328 23.375 34.4039 23.7568 35.6836 24.5205C36.9633 25.2842 37.9914 26.2692 38.768 27.4756C39.5445 28.682 40.1844 30.1318 40.6875 31.8252C41.1906 33.5186 41.5352 35.2008 41.7211 36.8721C41.907 38.5433 42 40.3197 42 42.2012ZM33.6 12.75C33.6 16.2695 32.3695 19.2744 29.9086 21.7646C27.4477 24.2549 24.4781 25.5 21 25.5C17.5219 25.5 14.5523 24.2549 12.0914 21.7646C9.63047 19.2744 8.4 16.2695 8.4 12.75C8.4 9.23047 9.63047 6.22559 12.0914 3.73535C14.5523 1.24512 17.5219 0 21 0C24.4781 0 27.4477 1.24512 29.9086 3.73535C32.3695 6.22559 33.6 9.23047 33.6 12.75Z" fill="#8BC3CC"/>
</svg>
