<svg width="51" height="39" viewBox="0 0 51 39" fill="none" xmlns="http://www.w3.org/2000/svg">
<path d="M45.8642 0C47.2974 0 48.5117 0.475146 49.507 1.42544C50.5023 2.37573 51 3.53509 51 4.90351V34.0965C51 35.4649 50.5023 36.6243 49.507 37.5746C48.5117 38.5249 47.2974 39 45.8642 39H5.13583C3.70258 39 2.48829 38.5249 1.49297 37.5746C0.497658 36.6243 0 35.4649 0 34.0965V4.90351C0 3.53509 0.497658 2.37573 1.49297 1.42544C2.48829 0.475146 3.70258 0 5.13583 0H45.8642ZM45.8642 9.80702V4.90351L25.4403 20.1053L5.13583 4.90351V9.80702L25.4403 24.8947L45.8642 9.80702Z" fill="white" fill-opacity="0.7"/>
<path d="M19.5 19.5L3 33" stroke="#168799" stroke-width="3"/>
<path d="M30 18L49.5 33" stroke="#168799" stroke-width="3"/>
</svg>
