<svg width="66" height="55" viewBox="0 0 66 55" fill="none" xmlns="http://www.w3.org/2000/svg">
<path d="M63.3783 29.2111C63.1087 29.2124 62.8415 29.1691 62.5919 29.0835C62.3423 28.998 62.1153 28.8719 61.9239 28.7126L32.6524 4.12752L3.38079 28.7126C2.98893 28.9942 2.48487 29.1414 1.96934 29.1247C1.4538 29.108 0.964771 28.9286 0.599963 28.6224C0.235155 28.3162 0.0214404 27.9058 0.00152766 27.4731C-0.0183851 27.0404 0.15697 26.6173 0.492551 26.2884L31.2185 0.49994C31.6023 0.179732 32.1214 0 32.6626 0C33.2038 0 33.7229 0.179732 34.1067 0.49994L64.8327 26.2884C65.1145 26.5298 65.3054 26.8355 65.3814 27.1674C65.4574 27.4993 65.4152 27.8426 65.26 28.1545C65.1048 28.4663 64.8436 28.7329 64.5089 28.9208C64.1742 29.1088 63.781 29.2097 63.3783 29.2111Z" fill="white"/>
<path d="M32.6523 9.93896L8.07153 30.6385V51.5616C8.07153 52.4735 8.50316 53.3481 9.27146 53.993C10.0398 54.6378 11.0818 55.0001 12.1683 55.0001H26.5071V37.8077H38.7975V55.0001H53.1362C54.2228 55.0001 55.2648 54.6378 56.0331 53.993C56.8014 53.3481 57.233 52.4735 57.233 51.5616V30.5182L32.6523 9.93896Z" fill="white"/>
</svg>
