<svg width="49" height="59" viewBox="0 0 49 59" fill="none" xmlns="http://www.w3.org/2000/svg">
<path d="M4.08333 58.0832H28.5833C29.666 58.0821 30.704 57.6515 31.4695 56.886C32.235 56.1205 32.6656 55.0825 32.6667 53.9998V47.8748H28.5833V53.9998H4.08333V4.99984H28.5833V11.1248H32.6667V4.99984C32.6656 3.9172 32.235 2.87922 31.4695 2.11368C30.704 1.34814 29.666 0.917585 28.5833 0.916504H4.08333C3.0007 0.917585 1.96271 1.34814 1.19718 2.11368C0.431636 2.87922 0.00108101 3.9172 0 4.99984V53.9998C0.00108101 55.0825 0.431636 56.1205 1.19718 56.886C1.96271 57.6515 3.0007 58.0821 4.08333 58.0832Z" fill="white"/>
<path d="M33.8631 38.8626L41.1845 31.5412H12.25V27.4578H41.1845L33.8631 20.1364L36.75 17.2495L49 29.4995L36.75 41.7495L33.8631 38.8626Z" fill="white"/>
</svg>
