<svg xmlns="http://www.w3.org/2000/svg" xmlns:xlink="http://www.w3.org/1999/xlink" version="1.1" id="Layer_1" x="0px" y="0px" width="100%" viewBox="0 0 740 740" enable-background="new 0 0 740 740" xml:space="preserve">
<path fill="#ffffff" opacity="1.000000" stroke="none" d=" M407.000000,741.000000   C271.333344,741.000000 136.166672,741.000000 1.000000,741.000000   C1.000000,494.333344 1.000000,247.666672 1.000000,1.000000   C247.666672,1.000000 494.333344,1.000000 741.000000,1.000000   C741.000000,247.666672 741.000000,494.333344 741.000000,741.000000   C629.833313,741.000000 518.666687,741.000000 407.000000,741.000000  M186.771652,627.916199   C187.037430,628.378662 187.303192,628.841064 187.557404,629.383423   C187.557404,629.383423 187.549606,629.463806 187.595367,630.194824   C192.105087,641.539062 198.881500,651.172974 209.215454,658.935120   C218.419052,665.497803 228.415298,670.064758 240.586166,671.446045   C243.733017,671.665894 246.879807,672.076782 250.026703,672.077637   C331.220428,672.099670 412.414185,672.090576 493.607880,672.022339   C496.734222,672.019714 499.860016,671.376526 503.802338,671.120605   C512.920898,669.548584 521.499329,666.615051 529.725647,660.954712   C537.601135,655.325134 544.620361,648.898254 549.094360,640.083740   C549.094360,640.083740 549.084167,640.128845 549.537903,639.878845   C549.847717,639.279053 550.157532,638.679260 550.998901,637.542542   C552.195374,634.781433 553.391785,632.020264 554.955627,628.851807   C555.256226,628.208679 555.556824,627.565613 556.548218,626.544861   C558.694702,626.024231 560.840210,625.053589 562.987732,625.049255   C607.461182,624.959167 651.934875,624.992737 696.408508,624.965027   C704.846924,624.959778 703.991882,625.934692 704.001953,617.617981   C704.030823,593.798767 704.012634,569.979553 704.012024,546.160339   C704.011536,524.839661 703.900085,503.517944 704.101685,482.199188   C704.141663,477.965942 702.813049,476.547699 698.715271,476.981110   C693.944092,477.485718 689.136841,477.970367 684.348450,477.941498   C642.579407,477.689789 600.810974,477.321014 558.985657,476.053558   C558.975891,438.893097 559.050842,401.732330 558.929993,364.572235   C558.830933,334.122314 544.647339,312.790497 516.912720,299.525177   C516.941772,264.231842 517.004333,228.938492 516.955017,193.645279   C516.949280,189.526947 516.413574,185.399933 515.971680,181.293304   C514.441833,167.078552 511.133545,153.326462 505.131683,140.286697   C499.021729,127.012245 490.003876,115.652870 480.009125,105.344810   C469.173218,94.169243 456.126984,85.675156 441.540344,79.760834   C425.712250,73.343155 409.348999,69.879967 392.231415,69.980835   C376.749207,70.072067 361.256042,69.654671 345.786041,70.099022   C330.354919,70.542259 315.117126,72.428398 301.120178,79.886612   C296.737427,82.221939 291.727936,83.481102 287.581329,86.133385   C282.724487,89.239960 278.496429,93.329605 273.449005,97.372093   C268.995758,100.904510 264.357788,104.233650 260.160034,108.047318   C257.731628,110.253548 256.012543,113.240517 253.373779,116.210777   C249.168945,122.276054 244.653183,128.151901 240.819977,134.443604   C230.946396,150.649689 226.349106,168.570831 226.131134,187.349365   C225.721924,222.602753 226.024551,257.864258 225.981003,293.122314   C225.977951,295.589966 225.562332,298.057129 224.703903,300.836121   C213.977280,305.128387 204.752563,311.431030 197.315155,321.248138   C189.865082,330.916504 184.722931,341.532074 183.528168,354.655548   C183.354034,357.143250 183.030502,359.630798 183.028229,362.118652   C182.994385,399.110870 182.999588,436.103119 183.015884,473.095367   C183.016464,474.413544 183.226166,475.731689 183.144592,476.929382   C183.144592,476.929382 182.924896,476.991058 182.019501,477.009521   C177.062225,477.335907 172.105484,477.935394 167.147568,477.945374   C128.334488,478.023560 89.521172,477.994049 50.707935,477.971985   C48.890881,477.970947 47.038940,477.906219 45.263260,477.561768   C38.798893,476.307922 37.997990,476.904083 37.997318,483.489197   C37.992733,528.465942 37.992832,573.442627 37.997375,618.419373   C37.998039,624.977844 38.012726,624.988281 44.735168,624.988525   C89.711884,624.990173 134.688660,624.961060 179.665115,625.066833   C181.772049,625.071777 183.876175,626.264771 186.373520,627.154724   C186.373520,627.154724 186.800751,627.334290 186.771652,627.916199  z"/>
<path fill="#e5eff0" opacity="1.000000" stroke="none" d=" M253.974243,115.876099   C256.012543,113.240517 257.731628,110.253548 260.160034,108.047318   C264.357788,104.233650 268.995758,100.904510 274.100464,97.177094   C278.126862,95.042587 281.517273,93.129425 284.874207,91.159218   C303.937958,79.970520 324.960876,76.105881 346.619385,75.098602   C357.732361,74.581779 368.890076,75.100281 380.025909,74.985916   C395.989685,74.821968 411.743286,76.362679 427.026428,81.094383   C431.537872,82.491142 435.700195,85.015671 439.611938,87.005997   C436.140930,86.339882 433.103546,85.502136 430.009979,85.124023   C428.516296,84.941467 426.916931,85.623436 425.365417,85.913956   C425.957306,87.486877 426.203461,89.332474 427.195221,90.590050   C436.051514,101.819794 448.979462,106.866127 461.426758,112.481194   C464.447357,113.843803 468.213684,113.824791 471.642517,113.856422   C472.766388,113.866783 473.907349,112.028381 475.428467,111.038223   C476.874023,112.974930 478.641541,114.834137 478.854401,116.856934   C479.463989,122.649895 481.847443,125.619049 487.561676,127.078941   C489.143341,127.483025 491.029297,128.559311 491.817200,129.893280   C495.811493,136.656342 499.900391,143.416367 503.186920,150.532684   C508.611786,162.279236 512.685974,174.705124 512.844238,187.650620   C513.297607,224.729782 513.010742,261.817993 512.627441,298.904602   C509.157288,298.315704 506.074677,297.724884 502.582428,297.036255   C491.776215,296.654999 481.379639,296.371552 470.743042,295.785461   C466.566559,295.243683 466.985260,292.421387 466.987030,289.719086   C467.010223,254.265610 466.900940,218.811676 467.065216,183.358963   C467.113586,172.923126 465.607697,163.010925 461.048126,153.517517   C450.789307,132.157974 433.534058,120.131683 410.410553,118.300659   C391.884552,116.833679 373.149658,118.002922 354.507446,118.011711   C353.677948,118.012100 352.838104,118.039635 352.020630,118.167236   C338.715027,120.244080 327.406372,126.609856 316.994049,134.754486   C315.895050,135.614105 315.645691,137.559937 314.705170,139.030869   C314.285614,139.722946 314.163055,140.385971 313.874573,141.344421   C313.213257,142.078918 312.753845,142.568695 312.217255,142.949707   C296.327759,154.232086 288.153351,169.749985 286.492828,189.146973   C285.744202,191.085861 285.059814,192.936554 285.054535,194.789185   C284.958374,228.569229 284.943756,262.349518 284.453888,296.186310   C268.999756,296.541046 254.003525,296.839203 238.674667,297.094788   C237.896988,297.016479 237.451935,296.980804 237.004562,296.480713   C237.333771,254.467102 237.647934,212.917740 238.006485,171.368774   C238.127991,157.287735 241.498627,143.951065 247.372055,131.187271   C249.694778,126.139687 251.780579,120.983078 253.974243,115.876099  z"/>
<path fill="#e5eff0" opacity="1.000000" stroke="none" d=" M185.981598,626.904480   C183.876175,626.264771 181.772049,625.071777 179.665115,625.066833   C134.688660,624.961060 89.711884,624.990173 44.735168,624.988525   C38.012726,624.988281 37.998039,624.977844 37.997375,618.419373   C37.992832,573.442627 37.992733,528.465942 37.997318,483.489197   C37.997990,476.904083 38.798893,476.307922 45.263260,477.561768   C47.038940,477.906219 48.890881,477.970947 50.707935,477.971985   C89.521172,477.994049 128.334488,478.023560 167.147568,477.945374   C172.105484,477.935394 177.062225,477.335907 182.803650,477.255554   C185.241333,477.598419 186.894867,477.780060 188.548386,477.779968   C310.451965,477.774536 432.355530,477.757538 554.259094,477.704956   C555.853638,477.704285 557.447998,477.236664 559.042419,476.987000   C600.810974,477.321014 642.579407,477.689789 684.348450,477.941498   C689.136841,477.970367 693.944092,477.485718 698.715271,476.981110   C702.813049,476.547699 704.141663,477.965942 704.101685,482.199188   C703.900085,503.517944 704.011536,524.839661 704.012024,546.160339   C704.012634,569.979553 704.030823,593.798767 704.001953,617.617981   C703.991882,625.934692 704.846924,624.959778 696.408508,624.965027   C651.934875,624.992737 607.461182,624.959167 562.987732,625.049255   C560.840210,625.053589 558.694702,626.024231 556.203003,626.371826   C555.239563,625.805237 554.621277,625.411804 553.541138,624.926453   C455.730469,624.815735 358.381653,624.796448 261.032837,624.787537   C260.374420,624.787476 259.716003,624.930847 258.593262,624.913208   C235.572845,624.813171 213.016525,624.767151 190.461151,624.891418   C188.964294,624.899658 187.474609,626.203308 185.981598,626.904480  M233.500000,614.012207   C382.957642,614.012207 532.415283,614.012329 681.872925,614.011902   C689.006592,614.011841 689.013306,614.009644 689.013367,607.184204   C689.013367,569.528198 688.903931,531.871521 689.132080,494.216919   C689.163086,489.102875 687.795227,487.873627 682.755432,487.884583   C606.110779,488.051025 529.465637,488.000153 452.820648,488.000031   C322.024292,487.999786 191.227921,487.998718 60.431545,488.001373   C53.167427,488.001526 52.996193,488.173584 52.995789,495.135406   C52.993599,532.791443 53.087032,570.447937 52.882950,608.102844   C52.856350,613.010071 54.333584,614.127869 59.049301,614.114990   C116.865860,613.956970 174.682999,614.012207 233.500000,614.012207  z"/>
<path fill="#afddde" opacity="1.000000" stroke="none" d=" M183.905319,353.922485   C184.722931,341.532074 189.865082,330.916504 197.958664,321.059387   C199.853287,319.937469 201.235611,319.137146 202.335144,318.050659   C213.053101,307.459625 226.119095,302.252289 240.929077,301.404663   C238.601334,309.755280 234.407715,317.726257 234.311981,325.746155   C233.710541,376.136993 234.020981,426.538757 233.560669,476.975372   C216.729233,476.971252 200.366974,476.928680 184.000290,476.427307   C183.965668,435.286469 183.935501,394.604492 183.905319,353.922485  z"/>
<path fill="#afddde" opacity="1.000000" stroke="none" d=" M549.120850,640.125854   C544.620361,648.898254 537.601135,655.325134 529.044861,660.847656   C525.303223,660.161011 522.265076,659.346863 519.177063,659.046753   C510.620972,658.215271 502.033752,657.704163 493.477600,656.873108   C477.530853,655.324341 461.617615,653.391113 445.652069,652.088013   C432.782043,651.037598 419.860382,650.556702 406.952759,650.048828   C394.349121,649.552795 381.733398,649.044800 369.124420,649.078796   C351.186737,649.127136 333.245819,649.512756 315.314911,650.044250   C301.407684,650.456421 287.501587,651.125610 273.616699,652.017944   C255.629379,653.173950 237.656555,654.580750 219.694458,656.082520   C216.046478,656.387512 212.473938,657.594604 208.866623,658.385803   C198.881500,651.172974 192.105087,641.539062 187.909058,629.543335   C189.986267,628.252197 191.747406,627.063416 193.513641,627.055786   C216.666000,626.955994 239.819061,627.023071 263.136383,627.351074   C273.374207,634.941956 284.735504,638.897156 297.056458,638.921021   C378.302887,639.078186 459.549774,638.991211 540.796448,639.049683   C543.571533,639.051697 546.346069,639.751404 549.120850,640.125854  z"/>
<path fill="#afddde" opacity="1.000000" stroke="none" d=" M209.041046,658.660461   C212.473938,657.594604 216.046478,656.387512 219.694458,656.082520   C237.656555,654.580750 255.629379,653.173950 273.616699,652.017944   C287.501587,651.125610 301.407684,650.456421 315.314911,650.044250   C333.245819,649.512756 351.186737,649.127136 369.124420,649.078796   C381.733398,649.044800 394.349121,649.552795 406.952759,650.048828   C419.860382,650.556702 432.782043,651.037598 445.652069,652.088013   C461.617615,653.391113 477.530853,655.324341 493.477600,656.873108   C502.033752,657.704163 510.620972,658.215271 519.177063,659.046753   C522.265076,659.346863 525.303223,660.161011 528.709351,660.921631   C521.499329,666.615051 512.920898,669.548584 502.933411,671.058960   C497.696655,670.979858 493.328857,670.962402 488.666351,670.657471   C487.059174,670.246643 485.746735,670.015686 484.434235,670.015381   C407.200714,669.998169 329.967194,669.994446 252.733704,670.039673   C251.166641,670.040588 249.599945,670.632690 247.580017,670.969360   C244.690750,671.023010 242.254532,671.056335 239.818329,671.089722   C228.415298,670.064758 218.419052,665.497803 209.041046,658.660461  z"/>
<path fill="#afddde" opacity="1.000000" stroke="none" d=" M549.107605,640.104797   C546.346069,639.751404 543.571533,639.051697 540.796448,639.049683   C459.549774,638.991211 378.302887,639.078186 297.056458,638.921021   C284.735504,638.897156 273.374207,634.941956 263.607910,627.334778   C358.555634,627.010437 453.196289,626.989563 547.836731,627.094482   C550.088074,627.096985 552.337769,628.506104 554.588257,629.259155   C553.391785,632.020264 552.195374,634.781433 550.463135,637.880615   C549.646301,638.855469 549.365234,639.492188 549.084229,640.128845   C549.084167,640.128845 549.094360,640.083740 549.107605,640.104797  z"/>
<path fill="#e5eff0" opacity="1.000000" stroke="none" d=" M513.014954,298.902649   C513.010742,261.817993 513.297607,224.729782 512.844238,187.650620   C512.685974,174.705124 508.611786,162.279236 503.186920,150.532684   C499.900391,143.416367 495.811493,136.656342 491.817200,129.893280   C491.029297,128.559311 489.143341,127.483025 487.561676,127.078941   C481.847443,125.619049 479.463989,122.649895 478.854401,116.856934   C478.641541,114.834137 476.874023,112.974930 475.277893,110.710289   C472.771790,107.892700 471.225586,104.817543 468.747864,103.043137   C463.805756,99.503876 458.418945,96.558746 453.088928,93.596489   C448.830933,91.230034 444.385010,89.201767 440.022491,87.023376   C435.700195,85.015671 431.537872,82.491142 427.026428,81.094383   C411.743286,76.362679 395.989685,74.821968 380.025909,74.985916   C368.890076,75.100281 357.732361,74.581779 346.619385,75.098602   C324.960876,76.105881 303.937958,79.970520 284.874207,91.159218   C281.517273,93.129425 278.126862,95.042587 274.373779,96.987457   C278.496429,93.329605 282.724487,89.239960 287.581329,86.133385   C291.727936,83.481102 296.737427,82.221939 301.120178,79.886612   C315.117126,72.428398 330.354919,70.542259 345.786041,70.099022   C361.256042,69.654671 376.749207,70.072067 392.231415,69.980835   C409.348999,69.879967 425.712250,73.343155 441.540344,79.760834   C456.126984,85.675156 469.173218,94.169243 480.009125,105.344810   C490.003876,115.652870 499.021729,127.012245 505.131683,140.286697   C511.133545,153.326462 514.441833,167.078552 515.971680,181.293304   C516.413574,185.399933 516.949280,189.526947 516.955017,193.645279   C517.004333,228.938492 516.941772,264.231842 516.519531,299.944672   C515.089172,299.877014 514.052063,299.389832 513.014954,298.902649  z"/>
<path fill="#afddde" opacity="1.000000" stroke="none" d=" M512.627441,298.904602   C514.052063,299.389832 515.089172,299.877014 516.461731,300.443054   C544.647339,312.790497 558.830933,334.122314 558.929993,364.572235   C559.050842,401.732330 558.975891,438.893097 559.014038,476.520264   C557.447998,477.236664 555.853638,477.704285 554.259094,477.704956   C432.355530,477.757538 310.451965,477.774536 188.548386,477.779968   C186.894867,477.780060 185.241333,477.598419 183.256348,477.246338   C182.924896,476.991058 183.144592,476.929382 183.410507,476.958435   C183.676422,476.987457 184.004730,476.886078 184.004730,476.886108   C200.366974,476.928680 216.729233,476.971252 234.024734,477.009094   C341.662964,477.004303 448.367920,477.004303 555.021973,477.004303   C555.021973,472.044403 555.022095,467.580566 555.021973,463.116760   C555.020630,429.642761 555.132263,396.167938 554.886719,362.695740   C554.852905,358.081024 553.048157,353.479309 552.001404,348.480896   C550.317322,344.399048 548.695068,340.707886 547.056702,336.620270   C545.572205,334.704712 544.103760,333.185608 542.702759,331.307281   C541.890076,328.780701 541.476746,326.206573 540.023376,324.538879   C537.696594,321.869049 534.680054,319.800323 531.872192,317.168030   C531.457336,316.614380 531.125427,316.370209 530.847229,316.232361   C530.900940,316.338684 530.689636,316.448761 530.680481,316.109436   C530.086426,315.543518 529.501526,315.316986 528.917664,315.126556   C528.918701,315.162689 528.847717,315.176697 528.866699,314.831482   C528.140381,314.504150 527.395081,314.522034 526.319092,314.452759   C524.618408,313.619324 523.248535,312.873016 522.163086,311.922760   C521.647583,310.367157 521.116455,308.147400 520.004395,307.802887   C511.991669,305.320587 503.871277,301.329803 495.766479,301.286499   C410.832245,300.832733 325.894501,301.030304 240.957733,301.047668   C226.119095,302.252289 213.053101,307.459625 202.335144,318.050659   C201.235611,319.137146 199.853287,319.937469 198.239670,320.874420   C204.752563,311.431030 213.977280,305.128387 225.388824,300.602325   C229.718140,299.227417 233.362518,298.086304 237.006897,296.945160   C237.451935,296.980804 237.896988,297.016479 238.775665,297.479980   C241.065765,298.273102 242.921692,298.953796 244.778778,298.957031   C280.742004,299.019958 316.705383,299.003723 352.668732,299.003632   C400.952850,299.003479 449.237030,299.023682 497.520966,298.924133   C499.345886,298.920380 501.168396,297.757019 502.992035,297.134033   C506.074677,297.724884 509.157288,298.315704 512.627441,298.904602  z"/>
<path fill="#afddde" opacity="1.000000" stroke="none" d=" M237.004562,296.480743   C233.362518,298.086304 229.718140,299.227417 225.706146,300.446533   C225.562332,298.057129 225.977951,295.589966 225.981003,293.122314   C226.024551,257.864258 225.721924,222.602753 226.131134,187.349365   C226.349106,168.570831 230.946396,150.649689 240.819977,134.443604   C244.653183,128.151901 249.168945,122.276054 253.674011,116.043442   C251.780579,120.983078 249.694778,126.139687 247.372055,131.187271   C241.498627,143.951065 238.127991,157.287735 238.006485,171.368774   C237.647934,212.917740 237.333771,254.467102 237.004562,296.480743  z"/>
<path fill="#afddde" opacity="1.000000" stroke="none" d=" M554.771973,629.055481   C552.337769,628.506104 550.088074,627.096985 547.836731,627.094482   C453.196289,626.989563 358.555634,627.010437 263.443481,627.031921   C239.819061,627.023071 216.666000,626.955994 193.513641,627.055786   C191.747406,627.063416 189.986267,628.252197 187.886185,629.177856   C187.549606,629.463806 187.557404,629.383423 187.723434,628.955933   C187.927124,627.710205 187.964767,626.891968 188.470520,626.055298   C212.291306,626.012146 235.643951,625.987427 259.465271,625.975586   C355.890228,625.992249 451.846466,626.002258 547.802734,625.958984   C549.869629,625.958069 551.936279,625.345520 554.003052,625.018311   C554.621277,625.411804 555.239563,625.805237 555.857605,626.560608   C555.556824,627.565613 555.256226,628.208679 554.771973,629.055481  z"/>
<path fill="#afddde" opacity="1.000000" stroke="none" d=" M488.961060,670.944946   C493.328857,670.962402 497.696655,670.979858 502.525269,671.014526   C499.860016,671.376526 496.734222,672.019714 493.607880,672.022339   C412.414185,672.090576 331.220428,672.099670 250.026703,672.077637   C246.879807,672.076782 243.733017,671.665894 240.202240,671.267883   C242.254532,671.056335 244.690750,671.023010 248.044495,670.988159   C328.961700,670.972778 408.961395,670.958862 488.961060,670.944946  z"/>
<path fill="#afddde" opacity="1.000000" stroke="none" d=" M184.000290,476.427277   C184.004730,476.886078 183.676422,476.987457 183.507416,477.018646   C183.226166,475.731689 183.016464,474.413544 183.015884,473.095367   C182.999588,436.103119 182.994385,399.110870 183.028229,362.118652   C183.030502,359.630798 183.354034,357.143250 183.716736,354.289001   C183.935501,394.604492 183.965668,435.286469 184.000290,476.427277  z"/>
<path fill="#afddde" opacity="1.000000" stroke="none" d=" M258.996613,625.962708   C235.643951,625.987427 212.291306,626.012146 188.203323,626.191772   C187.245590,626.675903 187.023163,627.005066 186.800751,627.334290   C186.800751,627.334290 186.373520,627.154724 186.177551,627.029602   C187.474609,626.203308 188.964294,624.899658 190.461151,624.891418   C213.016525,624.767151 235.572845,624.813171 258.572418,625.151733   C259.015900,625.484192 258.996613,625.962708 258.996613,625.962708  z"/>
<path fill="#afddde" opacity="1.000000" stroke="none" d=" M186.786194,627.625244   C187.023163,627.005066 187.245590,626.675903 187.735199,626.210205   C187.964767,626.891968 187.927124,627.710205 187.729218,628.916016   C187.303192,628.841064 187.037430,628.378662 186.786194,627.625244  z"/>
<path fill="#afddde" opacity="1.000000" stroke="none" d=" M549.311035,640.003845   C549.365234,639.492188 549.646301,638.855469 550.197388,638.149109   C550.157532,638.679260 549.847717,639.279053 549.311035,640.003845  z"/>
<path fill="#ffffff" opacity="1.000000" stroke="none" d=" M286.873169,189.059677   C288.153351,169.749985 296.327759,154.232086 312.217255,142.949707   C312.753845,142.568695 313.213257,142.078918 314.112946,141.312592   C314.517273,140.985367 314.992889,140.909363 315.309631,140.886810   C316.081573,140.243164 316.536774,139.622070 317.243744,138.987122   C317.662781,138.956406 317.830017,138.939560 318.346497,138.934418   C319.462128,138.298233 320.228485,137.650330 321.245819,136.984619   C321.663330,136.947144 321.829895,136.927460 322.313965,136.889130   C323.094940,136.250870 323.558350,135.631271 324.266785,134.998886   C324.511780,134.986115 324.999207,134.929810 325.403198,134.944351   C333.103485,133.630005 340.366272,131.436661 347.703125,131.152100   C363.002106,130.558716 378.346710,130.699219 393.660217,131.061646   C406.106506,131.356216 417.779633,134.584991 428.151062,141.979385   C446.235809,154.873077 455.174591,172.261322 455.086823,194.487183   C454.962494,225.963501 454.914612,257.441864 455.185547,288.916321   C455.230804,294.175720 453.625244,295.192627 448.723846,295.176361   C396.762695,295.003906 344.800537,295.001709 292.839417,295.179688   C287.908234,295.196594 286.819122,293.666992 286.843018,288.983734   C287.013000,255.676514 286.897644,222.367874 286.873169,189.059677  z"/>
<path fill="#afddde" opacity="1.000000" stroke="none" d=" M317.997253,138.922729   C317.830017,138.939560 317.662781,138.956406 316.912231,138.985840   C315.886810,138.999832 315.444611,139.001236 315.001221,139.001312   C315.000000,139.000000 315.002136,139.001831 315.002136,139.001831   C315.645691,137.559937 315.895050,135.614105 316.994049,134.754486   C327.406372,126.609856 338.715027,120.244080 352.020630,118.167236   C352.838104,118.039635 353.677948,118.012100 354.507446,118.011711   C373.149658,118.002922 391.884552,116.833679 410.410553,118.300659   C433.534058,120.131683 450.789307,132.157974 461.048126,153.517517   C465.607697,163.010925 467.113586,172.923126 467.065216,183.358963   C466.900940,218.811676 467.010223,254.265610 466.987030,289.719086   C466.985260,292.421387 466.566559,295.243683 470.284912,295.860168   C465.746796,296.215546 461.426788,296.193573 457.222656,295.762634   C457.550842,294.554688 457.954376,293.754181 457.948029,292.956940   C457.662994,257.171234 457.062164,221.385117 457.148315,185.600616   C457.188690,168.822052 449.282043,156.064240 438.241302,144.985962   C427.440033,134.148026 413.600739,128.490326 398.392090,128.194229   C378.618988,127.809273 358.803986,128.334915 339.046448,129.286591   C334.284485,129.515961 329.677460,132.962662 324.999207,134.929810   C324.999207,134.929810 324.511780,134.986115 323.949402,135.031189   C322.923462,135.686752 322.459961,136.297272 321.996460,136.907791   C321.829895,136.927460 321.663330,136.947144 320.896606,136.987518   C319.530029,137.646378 318.763641,138.284546 317.997253,138.922729  z"/>
<path fill="#afddde" opacity="1.000000" stroke="none" d=" M325.403198,134.944351   C329.677460,132.962662 334.284485,129.515961 339.046448,129.286591   C358.803986,128.334915 378.618988,127.809273 398.392090,128.194229   C413.600739,128.490326 427.440033,134.148026 438.241302,144.985962   C449.282043,156.064240 457.188690,168.822052 457.148315,185.600616   C457.062164,221.385117 457.662994,257.171234 457.948029,292.956940   C457.954376,293.754181 457.550842,294.554688 456.859009,295.964142   C455.717834,296.625397 455.056152,296.720673 454.394501,296.720764   C399.526520,296.726440 344.658569,296.729889 289.790588,296.698669   C288.164246,296.697754 286.538055,296.327667 284.911804,296.129730   C284.943756,262.349518 284.958374,228.569229 285.054535,194.789185   C285.059814,192.936554 285.744202,191.085861 286.492828,189.146973   C286.897644,222.367874 287.013000,255.676514 286.843018,288.983734   C286.819122,293.666992 287.908234,295.196594 292.839417,295.179688   C344.800537,295.001709 396.762695,295.003906 448.723846,295.176361   C453.625244,295.192627 455.230804,294.175720 455.185547,288.916321   C454.914612,257.441864 454.962494,225.963501 455.086823,194.487183   C455.174591,172.261322 446.235809,154.873077 428.151062,141.979385   C417.779633,134.584991 406.106506,131.356216 393.660217,131.061646   C378.346710,130.699219 363.002106,130.558716 347.703125,131.152100   C340.366272,131.436661 333.103485,133.630005 325.403198,134.944351  z"/>
<path fill="#fefefe" opacity="1.000000" stroke="none" d=" M439.611938,87.005997   C444.385010,89.201767 448.830933,91.230034 453.088928,93.596489   C458.418945,96.558746 463.805756,99.503876 468.747864,103.043137   C471.225586,104.817543 472.771790,107.892700 474.889893,110.707504   C473.907349,112.028381 472.766388,113.866783 471.642517,113.856422   C468.213684,113.824791 464.447357,113.843803 461.426758,112.481194   C448.979462,106.866127 436.051514,101.819794 427.195221,90.590050   C426.203461,89.332474 425.957306,87.486877 425.365417,85.913956   C426.916931,85.623436 428.516296,84.941467 430.009979,85.124023   C433.103546,85.502136 436.140930,86.339882 439.611938,87.005997  z"/>
<path fill="#afddde" opacity="1.000000" stroke="none" d=" M284.453888,296.186310   C286.538055,296.327667 288.164246,296.697754 289.790588,296.698669   C344.658569,296.729889 399.526520,296.726440 454.394501,296.720764   C455.056152,296.720673 455.717834,296.625397 456.743164,296.373108   C461.426788,296.193573 465.746796,296.215546 470.524902,296.162811   C481.379639,296.371552 491.776215,296.654999 502.582428,297.036255   C501.168396,297.757019 499.345886,298.920380 497.520966,298.924133   C449.237030,299.023682 400.952850,299.003479 352.668732,299.003632   C316.705383,299.003723 280.742004,299.019958 244.778778,298.957031   C242.921692,298.953796 241.065765,298.273102 239.108307,297.522583   C254.003525,296.839203 268.999756,296.541046 284.453888,296.186310  z"/>
<path fill="#afddde" opacity="1.000000" stroke="none" d=" M314.992889,140.909363   C314.992889,140.909363 314.517273,140.985367 314.278870,141.017181   C314.163055,140.385971 314.285614,139.722946 314.705170,139.030869   C315.002136,139.001831 315.000000,139.000000 314.999298,139.319641   C314.996704,140.062637 314.994781,140.486008 314.992889,140.909363  z"/>
<path fill="#fefefe" opacity="1.000000" stroke="none" d=" M233.000000,614.012207   C174.682999,614.012207 116.865860,613.956970 59.049301,614.114990   C54.333584,614.127869 52.856350,613.010071 52.882950,608.102844   C53.087032,570.447937 52.993599,532.791443 52.995789,495.135406   C52.996193,488.173584 53.167427,488.001526 60.431545,488.001373   C191.227921,487.998718 322.024292,487.999786 452.820648,488.000031   C529.465637,488.000153 606.110779,488.051025 682.755432,487.884583   C687.795227,487.873627 689.163086,489.102875 689.132080,494.216919   C688.903931,531.871521 689.013367,569.528198 689.013367,607.184204   C689.013306,614.009644 689.006592,614.011841 681.872925,614.011902   C532.415283,614.012329 382.957642,614.012207 233.000000,614.012207  M347.944244,552.285217   C351.701752,551.154846 355.459290,550.024414 359.354980,548.852478   C358.188232,545.196533 357.198639,542.095703 356.158325,538.835815   C349.465027,541.285950 343.275421,543.551636 336.726807,545.948730   C336.726807,538.036316 336.726807,530.632263 336.726807,523.071167   C333.460510,523.071167 330.382385,523.071167 327.092682,523.071167   C327.092682,530.490601 327.092682,537.710144 327.092682,545.528259   C320.312683,543.082397 313.978058,540.797180 307.287354,538.383484   C306.198761,541.926453 305.249298,545.016418 304.225433,548.348633   C311.098846,550.464844 317.476532,552.428406 324.182190,554.492920   C319.540009,560.936218 315.308685,566.809265 310.919800,572.901001   C313.895996,575.031128 316.525848,576.913330 319.305420,578.902710   C323.473907,572.487427 327.294281,566.607971 331.344421,560.374817   C335.753357,567.095276 339.720642,573.142578 343.818481,579.388794   C346.871704,577.049438 349.440704,575.081055 352.029114,573.097778   C347.510803,566.839539 343.378937,561.116516 338.987274,555.033630   C342.128479,554.081970 344.660797,553.314758 347.944244,552.285217  M155.521912,550.920105   C159.276169,552.055603 163.030411,553.191101 167.295242,554.481079   C162.725174,560.782410 158.477127,566.639832 153.994339,572.820862   C156.905960,574.958496 159.518951,576.876831 162.301468,578.919678   C166.438705,572.578674 170.300079,566.660400 174.389481,560.392700   C178.716019,566.992859 182.693527,573.060547 186.870972,579.433289   C189.815018,577.165955 192.373825,575.195374 195.094009,573.100464   C190.617416,566.939514 186.443741,561.195435 181.996124,555.074402   C189.012131,552.928284 195.601624,550.912598 202.383163,548.838196   C201.217773,545.243652 200.217407,542.158081 199.149628,538.864624   C192.498459,541.282349 186.309036,543.532288 179.810089,545.894653   C179.810089,538.043335 179.810089,530.631836 179.810089,523.039795   C176.495850,523.039795 173.419022,523.039795 170.146637,523.039795   C170.146637,530.467651 170.146637,537.699036 170.146637,545.513916   C163.398254,543.091797 157.057129,540.815918 150.339661,538.404907   C149.258438,541.896606 148.299698,544.992798 147.259995,548.350464   C150.071198,549.207642 152.425186,549.925415 155.521912,550.920105  M471.059967,551.306519   C474.297058,552.333435 477.534149,553.360413 481.151398,554.507935   C476.573914,560.865234 472.344543,566.739075 467.929413,572.870850   C470.793365,574.959167 473.416412,576.871887 476.234528,578.926758   C480.379761,572.543396 484.229309,566.615295 488.332458,560.296692   C492.638733,566.957214 496.574799,573.045166 500.695038,579.417969   C503.678192,577.174744 506.263672,575.230469 509.018616,573.158813   C504.517242,566.927612 500.358398,561.170471 495.938965,555.052673   C502.892242,552.938538 509.495941,550.930664 516.294678,548.863525   C515.170105,545.293762 514.190308,542.183411 513.134216,538.831116   C506.483093,541.264160 500.223938,543.553833 493.686066,545.945435   C493.686066,537.876587 493.686066,530.485596 493.686066,523.081543   C490.328949,523.081543 487.251984,523.081543 483.962463,523.081543   C483.962463,530.543396 483.962463,537.748474 483.962463,545.477051   C477.188904,543.049927 470.861389,540.782654 464.248505,538.413086   C463.165436,541.962402 462.223480,545.049255 461.206512,548.382019   C464.603027,549.406677 467.443329,550.263611 471.059967,551.306519  M572.141418,530.034851   C572.574219,522.474182 571.412720,521.663513 562.473755,523.470154   C562.473755,530.620361 562.473755,537.817200 562.473755,545.536804   C555.702698,543.092285 549.390076,540.813293 542.751282,538.416504   C541.593262,542.115662 540.672302,545.057373 539.649353,548.325073   C546.432129,550.420105 552.816040,552.391846 559.640625,554.499756   C556.597778,558.713867 553.990295,562.343018 551.363953,565.958496   C545.825317,573.583191 545.820801,573.581055 554.169373,578.257568   C554.284363,578.322021 554.467041,578.265625 555.086670,578.265625   C558.786194,572.609314 562.633789,566.726562 566.788818,560.373718   C571.141785,567.047363 575.112366,573.134888 579.204529,579.408630   C582.099670,577.196228 584.681519,575.223267 587.454712,573.104065   C583.059937,567.014526 578.907776,561.261169 574.457886,555.095276   C581.505127,552.911011 588.062073,550.878784 594.757568,548.803589   C593.616882,545.155090 592.684692,542.173279 591.644897,538.847412   C584.986694,541.260010 578.663635,543.551147 572.135437,545.916626   C572.135437,540.573242 572.135437,535.755249 572.141418,530.034851  M426.298431,541.885559   C422.654602,543.207275 419.010742,544.529053 415.157440,545.926758   C415.157440,540.900452 415.123199,536.580994 415.170105,532.262390   C415.199005,529.603821 416.166595,526.541565 415.126251,524.449402   C414.554230,523.299011 410.692810,523.808228 408.321289,523.514038   C407.626709,523.427917 406.955627,523.152527 405.754059,522.820190   C405.754059,530.591003 405.754059,537.789551 405.754059,545.591614   C398.882141,543.130676 392.546936,540.862000 385.785950,538.440857   C384.658997,542.028320 383.701996,545.074707 382.674408,548.345825   C389.560303,550.450256 395.845917,552.371216 402.676666,554.458740   C399.743011,558.537476 397.154907,562.156616 394.545074,565.760010   C389.192078,573.150696 389.185333,573.150146 396.883698,578.147583   C397.102783,578.289795 397.466492,578.209167 398.114685,578.260132   C401.864441,572.544861 405.711029,566.682007 409.852173,560.370239   C414.235626,567.090210 418.209290,573.182007 422.272461,579.411072   C425.159912,577.194336 427.745087,575.209595 430.498260,573.095947   C426.070801,566.970947 421.920319,561.229065 417.435059,555.024109   C424.568298,552.882568 431.141846,550.908997 437.848816,548.895386   C436.621521,545.111267 435.626648,542.043823 434.580261,538.817444   C431.698029,539.904663 429.371582,540.782227 426.298431,541.885559  M241.260818,560.694336   C239.598816,562.983398 237.935349,565.271484 236.275192,567.561890   C232.405060,572.901245 232.402023,572.915466 237.820633,576.814209   C238.710556,577.454468 239.663971,578.006592 240.830978,578.755310   C244.891510,572.576172 248.752960,566.699951 252.914993,560.366272   C257.291565,567.089539 261.257568,573.182068 265.317749,579.419312   C268.187042,577.201660 270.771790,575.203979 273.518402,573.081116   C269.090332,566.957397 264.941284,561.219482 260.467224,555.032166   C267.500000,552.907166 273.963898,550.953979 280.776001,548.895630   C279.698700,545.310608 278.737488,542.111877 277.745331,538.810181   C270.865234,541.317078 264.662292,543.577271 258.192871,545.934509   C258.192871,538.012329 258.192871,530.600159 258.192871,523.095825   C254.890060,523.095825 251.826889,523.095825 248.645050,523.095825   C248.645050,530.571594 248.645050,537.780334 248.645050,545.522095   C241.911819,543.115295 235.578125,540.851318 228.814865,538.433777   C227.708496,541.979126 226.753906,545.038025 225.728149,548.325073   C232.573776,550.426331 238.862183,552.356506 245.671967,554.446777   C244.141281,556.648438 242.931107,558.389160 241.260818,560.694336  z"/>
<path fill="#afddde" opacity="1.000000" stroke="none" d=" M259.465271,625.975586   C258.996613,625.962708 259.015900,625.484192 259.036743,625.245728   C259.716003,624.930847 260.374420,624.787476 261.032837,624.787537   C358.381653,624.796448 455.730469,624.815735 553.541138,624.926453   C551.936279,625.345520 549.869629,625.958069 547.802734,625.958984   C451.846466,626.002258 355.890228,625.992249 259.465271,625.975586  z"/>
<path fill="#afddde" opacity="1.000000" stroke="none" d=" M240.929077,301.404663   C325.894501,301.030304 410.832245,300.832733 495.766479,301.286499   C503.871277,301.329803 511.991669,305.320587 520.004395,307.802887   C521.116455,308.147400 521.647583,310.367157 521.814148,311.833801   C512.481201,309.373108 503.876801,306.349335 495.029022,304.472931   C492.068176,303.845032 488.486145,306.146027 485.188049,307.108215   C486.846466,309.953003 487.897888,313.514679 490.266785,315.520325   C501.393677,324.940918 514.529785,330.467773 528.801880,332.827972   C533.227966,333.559906 538.014038,332.114838 542.635315,331.666504   C544.103760,333.185608 545.572205,334.704712 546.713867,336.555206   C542.925720,335.796844 540.988281,337.594116 541.220215,340.682770   C541.441833,343.634918 542.341980,346.847168 543.924377,349.316895   C546.649414,353.570038 549.122070,353.228943 552.063232,348.871582   C553.048157,353.479309 554.852905,358.081024 554.886719,362.695740   C555.132263,396.167938 555.020630,429.642761 555.021973,463.116760   C555.022095,467.580566 555.021973,472.044403 555.021973,477.004303   C448.367920,477.004303 341.662964,477.004303 234.493927,476.970581   C234.020981,426.538757 233.710541,376.136993 234.311981,325.746155   C234.407715,317.726257 238.601334,309.755280 240.929077,301.404663  z"/>
<path fill="#afddde" opacity="1.000000" stroke="none" d=" M488.666351,670.657471   C408.961395,670.958862 328.961700,670.972778 248.497559,670.967834   C249.599945,670.632690 251.166641,670.040588 252.733704,670.039673   C329.967194,669.994446 407.200714,669.998169 484.434235,670.015381   C485.746735,670.015686 487.059174,670.246643 488.666351,670.657471  z"/>
<path fill="#f8fbfa" opacity="1.000000" stroke="none" d=" M542.702759,331.307251   C538.014038,332.114838 533.227966,333.559906 528.801880,332.827972   C514.529785,330.467773 501.393677,324.940918 490.266785,315.520325   C487.897888,313.514679 486.846466,309.953003 485.188049,307.108215   C488.486145,306.146027 492.068176,303.845032 495.029022,304.472931   C503.876801,306.349335 512.481201,309.373108 521.529663,312.037781   C523.248535,312.873016 524.618408,313.619324 526.550232,314.649109   C527.690674,315.013977 528.269165,315.095337 528.847717,315.176697   C528.847717,315.176697 528.918701,315.162689 528.951050,315.459412   C529.552124,315.987000 530.120911,316.217896 530.689636,316.448761   C530.689636,316.448761 530.900940,316.338684 530.833313,316.578064   C531.162170,317.037476 531.558594,317.257477 531.955078,317.477509   C534.680054,319.800323 537.696594,321.869049 540.023376,324.538879   C541.476746,326.206573 541.890076,328.780701 542.702759,331.307251  z"/>
<path fill="#e5eff0" opacity="1.000000" stroke="none" d=" M552.001465,348.480896   C549.122070,353.228943 546.649414,353.570038 543.924377,349.316895   C542.341980,346.847168 541.441833,343.634918 541.220215,340.682770   C540.988281,337.594116 542.925720,335.796844 546.729919,336.951660   C548.695068,340.707886 550.317322,344.399048 552.001465,348.480896  z"/>
<path fill="#afddde" opacity="1.000000" stroke="none" d=" M528.866699,314.831482   C528.269165,315.095337 527.690674,315.013977 526.880981,314.736267   C527.395081,314.522034 528.140381,314.504150 528.866699,314.831482  z"/>
<path fill="#afddde" opacity="1.000000" stroke="none" d=" M530.680481,316.109436   C530.120911,316.217896 529.552124,315.987000 528.950012,315.423279   C529.501526,315.316986 530.086426,315.543518 530.680481,316.109436  z"/>
<path fill="#afddde" opacity="1.000000" stroke="none" d=" M531.872192,317.168030   C531.558594,317.257477 531.162170,317.037476 530.779602,316.471741   C531.125427,316.370209 531.457336,316.614380 531.872192,317.168030  z"/>
<path fill="#afddde" opacity="1.000000" stroke="none" d=" M318.346497,138.934418   C318.763641,138.284546 319.530029,137.646378 320.645630,137.005310   C320.228485,137.650330 319.462128,138.298233 318.346497,138.934418  z"/>
<path fill="#afddde" opacity="1.000000" stroke="none" d=" M315.309631,140.886810   C314.994781,140.486008 314.996704,140.062637 315.000519,139.320953   C315.444611,139.001236 315.886810,138.999832 316.660461,138.999710   C316.536774,139.622070 316.081573,140.243164 315.309631,140.886810  z"/>
<path fill="#afddde" opacity="1.000000" stroke="none" d=" M322.313965,136.889130   C322.459961,136.297272 322.923462,135.686752 323.704376,135.043945   C323.558350,135.631271 323.094940,136.250870 322.313965,136.889130  z"/>
<path fill="#afddde" opacity="1.000000" stroke="none" d=" M347.568665,552.416382   C344.660797,553.314758 342.128479,554.081970 338.987274,555.033630   C343.378937,561.116516 347.510803,566.839539 352.029114,573.097778   C349.440704,575.081055 346.871704,577.049438 343.818481,579.388794   C339.720642,573.142578 335.753357,567.095276 331.344421,560.374817   C327.294281,566.607971 323.473907,572.487427 319.305420,578.902710   C316.525848,576.913330 313.895996,575.031128 310.919800,572.901001   C315.308685,566.809265 319.540009,560.936218 324.182190,554.492920   C317.476532,552.428406 311.098846,550.464844 304.225433,548.348633   C305.249298,545.016418 306.198761,541.926453 307.287354,538.383484   C313.978058,540.797180 320.312683,543.082397 327.092682,545.528259   C327.092682,537.710144 327.092682,530.490601 327.092682,523.071167   C330.382385,523.071167 333.460510,523.071167 336.726807,523.071167   C336.726807,530.632263 336.726807,538.036316 336.726807,545.948730   C343.275421,543.551636 349.465027,541.285950 356.158325,538.835815   C357.198639,542.095703 358.188232,545.196533 359.354980,548.852478   C355.459290,550.024414 351.701752,551.154846 347.568665,552.416382  z"/>
<path fill="#afddde" opacity="1.000000" stroke="none" d=" M155.150543,550.781616   C152.425186,549.925415 150.071198,549.207642 147.259995,548.350464   C148.299698,544.992798 149.258438,541.896606 150.339661,538.404907   C157.057129,540.815918 163.398254,543.091797 170.146637,545.513916   C170.146637,537.699036 170.146637,530.467651 170.146637,523.039795   C173.419022,523.039795 176.495850,523.039795 179.810089,523.039795   C179.810089,530.631836 179.810089,538.043335 179.810089,545.894653   C186.309036,543.532288 192.498459,541.282349 199.149628,538.864624   C200.217407,542.158081 201.217773,545.243652 202.383163,548.838196   C195.601624,550.912598 189.012131,552.928284 181.996124,555.074402   C186.443741,561.195435 190.617416,566.939514 195.094009,573.100464   C192.373825,575.195374 189.815018,577.165955 186.870972,579.433289   C182.693527,573.060547 178.716019,566.992859 174.389481,560.392700   C170.300079,566.660400 166.438705,572.578674 162.301468,578.919678   C159.518951,576.876831 156.905960,574.958496 153.994339,572.820862   C158.477127,566.639832 162.725174,560.782410 167.295242,554.481079   C163.030411,553.191101 159.276169,552.055603 155.150543,550.781616  z"/>
<path fill="#afddde" opacity="1.000000" stroke="none" d=" M470.671814,551.213501   C467.443329,550.263611 464.603027,549.406677 461.206512,548.382019   C462.223480,545.049255 463.165436,541.962402 464.248505,538.413086   C470.861389,540.782654 477.188904,543.049927 483.962463,545.477051   C483.962463,537.748474 483.962463,530.543396 483.962463,523.081543   C487.251984,523.081543 490.328949,523.081543 493.686066,523.081543   C493.686066,530.485596 493.686066,537.876587 493.686066,545.945435   C500.223938,543.553833 506.483093,541.264160 513.134216,538.831116   C514.190308,542.183411 515.170105,545.293762 516.294678,548.863525   C509.495941,550.930664 502.892242,552.938538 495.938965,555.052673   C500.358398,561.170471 504.517242,566.927612 509.018616,573.158813   C506.263672,575.230469 503.678192,577.174744 500.695038,579.417969   C496.574799,573.045166 492.638733,566.957214 488.332458,560.296692   C484.229309,566.615295 480.379761,572.543396 476.234528,578.926758   C473.416412,576.871887 470.793365,574.959167 467.929413,572.870850   C472.344543,566.739075 476.573914,560.865234 481.151398,554.507935   C477.534149,553.360413 474.297058,552.333435 470.671814,551.213501  z"/>
<path fill="#afddde" opacity="1.000000" stroke="none" d=" M572.138428,530.486084   C572.135437,535.755249 572.135437,540.573242 572.135437,545.916626   C578.663635,543.551147 584.986694,541.260010 591.644897,538.847412   C592.684692,542.173279 593.616882,545.155090 594.757568,548.803589   C588.062073,550.878784 581.505127,552.911011 574.457886,555.095276   C578.907776,561.261169 583.059937,567.014526 587.454712,573.104065   C584.681519,575.223267 582.099670,577.196228 579.204529,579.408630   C575.112366,573.134888 571.141785,567.047363 566.788818,560.373718   C562.633789,566.726562 558.786194,572.609314 555.086670,578.265625   C554.467041,578.265625 554.284363,578.322021 554.169373,578.257568   C545.820801,573.581055 545.825317,573.583191 551.363953,565.958496   C553.990295,562.343018 556.597778,558.713867 559.640625,554.499756   C552.816040,552.391846 546.432129,550.420105 539.649353,548.325073   C540.672302,545.057373 541.593262,542.115662 542.751282,538.416504   C549.390076,540.813293 555.702698,543.092285 562.473755,545.536804   C562.473755,537.817200 562.473755,530.620361 562.473755,523.470154   C571.412720,521.663513 572.574219,522.474182 572.138428,530.486084  z"/>
<path fill="#afddde" opacity="1.000000" stroke="none" d=" M426.671753,541.772705   C429.371582,540.782227 431.698029,539.904663 434.580261,538.817444   C435.626648,542.043823 436.621521,545.111267 437.848816,548.895386   C431.141846,550.908997 424.568298,552.882568 417.435059,555.024109   C421.920319,561.229065 426.070801,566.970947 430.498260,573.095947   C427.745087,575.209595 425.159912,577.194336 422.272461,579.411072   C418.209290,573.182007 414.235626,567.090210 409.852173,560.370239   C405.711029,566.682007 401.864441,572.544861 398.114685,578.260132   C397.466492,578.209167 397.102783,578.289795 396.883698,578.147583   C389.185333,573.150146 389.192078,573.150696 394.545074,565.760010   C397.154907,562.156616 399.743011,558.537476 402.676666,554.458740   C395.845917,552.371216 389.560303,550.450256 382.674408,548.345825   C383.701996,545.074707 384.658997,542.028320 385.785950,538.440857   C392.546936,540.862000 398.882141,543.130676 405.754059,545.591614   C405.754059,537.789551 405.754059,530.591003 405.754059,522.820190   C406.955627,523.152527 407.626709,523.427917 408.321289,523.514038   C410.692810,523.808228 414.554230,523.299011 415.126251,524.449402   C416.166595,526.541565 415.199005,529.603821 415.170105,532.262390   C415.123199,536.580994 415.157440,540.900452 415.157440,545.926758   C419.010742,544.529053 422.654602,543.207275 426.671753,541.772705  z"/>
<path fill="#afddde" opacity="1.000000" stroke="none" d=" M241.490875,560.412109   C242.931107,558.389160 244.141281,556.648438 245.671967,554.446777   C238.862183,552.356506 232.573776,550.426331 225.728149,548.325073   C226.753906,545.038025 227.708496,541.979126 228.814865,538.433777   C235.578125,540.851318 241.911819,543.115295 248.645050,545.522095   C248.645050,537.780334 248.645050,530.571594 248.645050,523.095825   C251.826889,523.095825 254.890060,523.095825 258.192871,523.095825   C258.192871,530.600159 258.192871,538.012329 258.192871,545.934509   C264.662292,543.577271 270.865234,541.317078 277.745331,538.810181   C278.737488,542.111877 279.698700,545.310608 280.776001,548.895630   C273.963898,550.953979 267.500000,552.907166 260.467224,555.032166   C264.941284,561.219482 269.090332,566.957397 273.518402,573.081116   C270.771790,575.203979 268.187042,577.201660 265.317749,579.419312   C261.257568,573.182068 257.291565,567.089539 252.914993,560.366272   C248.752960,566.699951 244.891510,572.576172 240.830978,578.755310   C239.663971,578.006592 238.710556,577.454468 237.820633,576.814209   C232.402023,572.915466 232.405060,572.901245 236.275192,567.561890   C237.935349,565.271484 239.598816,562.983398 241.490875,560.412109  z"/>
</svg>