<svg xmlns="http://www.w3.org/2000/svg" xmlns:xlink="http://www.w3.org/1999/xlink" version="1.1" id="Layer_1" x="0px" y="0px" width="100%" viewBox="0 0 512 512" enable-background="new 0 0 512 512" xml:space="preserve">
<path fill="#ffffff" opacity="1.000000" stroke="none" d=" M271.000000,513.000000   C180.688583,513.000000 90.877167,513.000000 1.032874,513.000000   C1.032874,342.396881 1.032874,171.793777 1.032874,1.095328   C171.561432,1.095328 342.122955,1.095328 512.842224,1.095328   C512.842224,171.666550 512.842224,342.333252 512.842224,513.000000   C432.460419,513.000000 351.980194,513.000000 271.000000,513.000000  M355.399384,368.999939   C365.471710,369.372406 374.394836,365.970856 382.119598,359.873169   C393.535095,350.861969 400.966644,339.434479 400.982727,324.306793   C401.030701,279.145660 401.001404,233.984436 400.993958,188.823242   C400.993683,187.161530 401.212952,185.421844 400.812988,183.850052   C396.385468,166.451675 386.532440,153.702896 369.504425,147.595657   C368.997192,141.004349 368.771271,134.561859 367.963409,128.193192   C364.900604,104.048279 354.254974,83.439072 337.467529,66.132370   C326.692474,55.024025 313.963928,46.531597 299.428101,40.727108   C277.055450,31.793222 254.118439,30.397011 230.896820,35.677876   C207.129532,41.082840 187.223129,53.209743 171.389359,72.027046   C154.822693,91.715393 145.400360,114.089676 145.156479,139.910538   C145.105957,145.259552 143.592896,147.755188 138.736221,150.266891   C122.161102,158.839020 113.049332,172.620483 113.020424,191.657974   C112.955391,234.486038 113.154221,277.315186 112.894455,320.141754   C112.827263,331.219727 115.191483,341.228027 122.016151,349.936615   C131.009018,361.411987 142.368134,368.941925 157.448090,368.962158   C223.106705,369.050140 288.765472,368.999939 355.399384,368.999939  M156.194016,395.324158   C152.962097,397.875153 151.582886,401.115509 151.956573,405.295868   C152.445969,410.770447 152.621780,416.273071 152.952835,422.123047   C146.958664,420.140564 141.585449,418.360809 136.210464,416.586487   C128.643478,414.088562 125.662537,414.641235 121.870804,419.707825   C117.906960,425.004364 118.035088,434.666718 126.692261,436.925110   C132.741684,438.503204 138.719498,440.355804 145.229004,442.229614   C141.068085,448.154480 137.171539,453.572784 133.438446,459.101471   C132.381653,460.666595 131.344757,462.490540 131.092545,464.306030   C130.428711,469.084595 133.986313,474.276794 138.547043,475.814362   C144.305969,477.755890 148.544571,476.349426 151.946716,471.201050   C155.559219,465.734253 159.067230,460.198395 162.782364,454.442474   C167.020187,460.790344 170.772125,466.474640 174.591583,472.113190   C178.282867,477.562531 184.197815,478.504730 189.852722,474.617523   C194.950363,471.113373 196.358063,464.481171 193.002579,459.536713   C188.995590,453.632355 184.943100,447.758911 180.432816,441.175018   C185.328766,440.029694 189.647064,438.820068 194.041306,438.035919   C201.638626,436.680115 205.621887,433.676971 205.998108,428.593597   C206.718597,418.858612 199.842712,413.396393 190.302216,416.349945   C184.646713,418.100769 179.120956,420.270660 173.572006,422.239655   C173.286316,421.511139 173.173752,421.356598 173.172165,421.200958   C173.108337,414.878937 172.973648,408.556152 173.027725,402.235016   C173.064026,397.990265 170.949158,394.962585 167.125549,394.276215   C163.881027,393.693848 160.350296,394.705963 156.194016,395.324158  M267.999847,404.732727   C268.095703,399.841339 266.239685,395.890472 261.519073,394.257385   C251.924133,390.938110 244.187622,398.096130 245.999100,408.105347   C246.804886,412.557556 246.924652,417.133942 247.417160,422.297272   C240.952164,420.129608 235.459045,418.239624 229.933075,416.451050   C225.863663,415.133942 221.868561,414.151154 218.022537,417.392914   C213.607590,421.114258 213.349487,426.104553 214.194977,430.956543   C215.113007,436.224762 220.431580,436.547455 224.421387,437.927155   C229.222809,439.587463 234.194687,440.754852 239.596619,442.277679   C235.418121,448.134247 231.851944,453.370392 228.034958,458.416870   C224.046982,463.689484 224.328918,470.026917 229.141724,473.563690   C235.213791,478.025879 242.042801,477.885498 245.850403,471.714355   C249.380310,465.993347 253.176453,460.436554 256.899536,454.739868   C261.618317,461.430359 265.728180,467.898132 270.511292,473.822388   C273.912445,478.034973 279.782410,477.667725 284.482849,474.026428   C288.924896,470.585358 290.791077,464.712891 287.390167,459.796875   C283.235748,453.791656 279.235779,447.679626 274.844391,441.129578   C280.719818,439.685211 286.170319,438.377899 291.603485,437.002289   C300.566315,434.733093 300.684662,432.286499 299.784760,424.242004   C299.202820,419.039825 293.580841,413.103363 285.948273,416.007965   C279.919647,418.302185 273.743378,420.208282 267.001373,422.501465   C267.001373,419.161499 266.871613,416.528564 267.036804,413.914307   C267.211884,411.143372 267.667236,408.390076 267.999847,404.732727  M353.062622,457.476257   C355.983276,461.798431 358.789978,466.204163 361.873413,470.406891   C363.378113,472.457825 365.087036,474.735138 367.249878,475.849365   C371.889191,478.239410 377.489380,476.310120 381.637177,470.750885   C384.425293,467.014038 383.747559,462.617889 381.245544,458.836060   C377.382690,452.997345 373.252563,447.335388 369.178528,441.516693   C369.950348,441.091736 370.452301,440.664917 371.024719,440.523773   C375.898315,439.322235 380.777100,438.139374 385.669128,437.015320   C393.017395,435.326904 395.434906,431.640198 393.969116,424.244171   C392.625519,417.464783 386.615723,413.886658 380.104187,416.046906   C373.966095,418.083221 367.850128,420.186188 361.424774,422.361298   C361.243408,421.107422 360.998352,420.318237 361.038239,419.543793   C361.325897,413.959564 361.926086,408.378418 361.928772,402.796082   C361.931610,396.873108 357.449585,393.851257 349.651031,394.000397   C343.829681,394.111725 341.044769,396.952148 341.008514,402.920319   C340.971130,409.075989 341.000214,415.232056 341.000214,421.899353   C334.205444,419.757751 327.741058,417.709473 321.269592,415.683838   C315.594513,413.907440 310.162628,417.161530 308.203949,423.486877   C306.457031,429.128204 309.703339,435.450012 315.114777,436.957611   C321.290344,438.678101 327.464020,440.405457 333.850677,442.189087   C329.633698,448.268158 325.592102,453.973053 321.682678,459.767090   C318.320404,464.750275 319.080078,471.251892 323.564697,473.777466   C330.729401,477.812317 335.612274,478.658295 340.002045,471.906891   C343.101440,467.139923 346.034576,462.262573 349.227600,457.560516   C349.968658,456.469208 350.997528,453.532562 353.062622,457.476257  z"/>
<path fill="#afddde" opacity="1.000000" stroke="none" d=" M354.911804,368.999939   C288.765472,368.999939 223.106705,369.050140 157.448090,368.962158   C142.368134,368.941925 131.009018,361.411987 122.016151,349.936615   C115.191483,341.228027 112.827263,331.219727 112.894455,320.141754   C113.154221,277.315186 112.955391,234.486038 113.020424,191.657974   C113.049332,172.620483 122.161102,158.839020 138.736221,150.266891   C143.592896,147.755188 145.105957,145.259552 145.156479,139.910538   C145.400360,114.089676 154.822693,91.715393 171.389359,72.027046   C187.223129,53.209743 207.129532,41.082840 230.896820,35.677876   C254.118439,30.397011 277.055450,31.793222 299.428101,40.727108   C313.963928,46.531597 326.692474,55.024025 337.467529,66.132370   C354.254974,83.439072 364.900604,104.048279 367.963409,128.193192   C368.771271,134.561859 368.997192,141.004349 369.504425,147.595657   C386.532440,153.702896 396.385468,166.451675 400.812988,183.850052   C401.212952,185.421844 400.993683,187.161530 400.993958,188.823242   C401.001404,233.984436 401.030701,279.145660 400.982727,324.306793   C400.966644,339.434479 393.535095,350.861969 382.119598,359.873169   C374.394836,365.970856 365.471710,369.372406 354.911804,368.999939  M368.996277,320.196930   C368.997223,278.372681 369.017548,236.548401 368.986359,194.724167   C368.977966,183.466858 362.538422,177.017517 351.297729,177.012970   C288.477875,176.987473 225.658035,176.989227 162.838196,177.011124   C151.532806,177.015060 145.023056,183.424744 145.014221,194.590225   C144.981277,236.247925 144.978882,277.905701 145.016602,319.563385   C145.026474,330.464691 151.552307,336.977417 162.494781,336.982971   C225.481232,337.014893 288.467712,337.012848 351.454193,336.984558   C361.857452,336.979858 367.818420,331.492493 368.996277,320.196930  M180.982162,122.526817   C179.687546,129.810074 178.392929,137.093323 177.040207,144.703522   C230.933914,144.703522 283.297028,144.703522 335.999878,144.703522   C335.999878,141.774078 336.127563,139.129333 335.959503,136.503540   C335.824738,134.398315 335.408295,132.300293 334.984650,130.226074   C330.868469,110.073036 320.862122,93.318710 304.306396,81.235069   C285.776276,67.710388 264.748962,62.750652 242.004135,67.063759   C225.548904,70.184166 211.341629,78.002701 199.688599,89.950912   C190.937302,98.923874 185.060638,109.836151 180.982162,122.526817  z"/>
<path fill="#afddde" opacity="1.000000" stroke="none" d=" M156.570114,395.168335   C160.350296,394.705963 163.881027,393.693848 167.125549,394.276215   C170.949158,394.962585 173.064026,397.990265 173.027725,402.235016   C172.973648,408.556152 173.108337,414.878937 173.172165,421.200958   C173.173752,421.356598 173.286316,421.511139 173.572006,422.239655   C179.120956,420.270660 184.646713,418.100769 190.302216,416.349945   C199.842712,413.396393 206.718597,418.858612 205.998108,428.593597   C205.621887,433.676971 201.638626,436.680115 194.041306,438.035919   C189.647064,438.820068 185.328766,440.029694 180.432816,441.175018   C184.943100,447.758911 188.995590,453.632355 193.002579,459.536713   C196.358063,464.481171 194.950363,471.113373 189.852722,474.617523   C184.197815,478.504730 178.282867,477.562531 174.591583,472.113190   C170.772125,466.474640 167.020187,460.790344 162.782364,454.442474   C159.067230,460.198395 155.559219,465.734253 151.946716,471.201050   C148.544571,476.349426 144.305969,477.755890 138.547043,475.814362   C133.986313,474.276794 130.428711,469.084595 131.092545,464.306030   C131.344757,462.490540 132.381653,460.666595 133.438446,459.101471   C137.171539,453.572784 141.068085,448.154480 145.229004,442.229614   C138.719498,440.355804 132.741684,438.503204 126.692261,436.925110   C118.035088,434.666718 117.906960,425.004364 121.870804,419.707825   C125.662537,414.641235 128.643478,414.088562 136.210464,416.586487   C141.585449,418.360809 146.958664,420.140564 152.952835,422.123047   C152.621780,416.273071 152.445969,410.770447 151.956573,405.295868   C151.582886,401.115509 152.962097,397.875153 156.570114,395.168335  z"/>
<path fill="#afddde" opacity="1.000000" stroke="none" d=" M268.000000,405.180908   C267.667236,408.390076 267.211884,411.143372 267.036804,413.914307   C266.871613,416.528564 267.001373,419.161499 267.001373,422.501465   C273.743378,420.208282 279.919647,418.302185 285.948273,416.007965   C293.580841,413.103363 299.202820,419.039825 299.784760,424.242004   C300.684662,432.286499 300.566315,434.733093 291.603485,437.002289   C286.170319,438.377899 280.719818,439.685211 274.844391,441.129578   C279.235779,447.679626 283.235748,453.791656 287.390167,459.796875   C290.791077,464.712891 288.924896,470.585358 284.482849,474.026428   C279.782410,477.667725 273.912445,478.034973 270.511292,473.822388   C265.728180,467.898132 261.618317,461.430359 256.899536,454.739868   C253.176453,460.436554 249.380310,465.993347 245.850403,471.714355   C242.042801,477.885498 235.213791,478.025879 229.141724,473.563690   C224.328918,470.026917 224.046982,463.689484 228.034958,458.416870   C231.851944,453.370392 235.418121,448.134247 239.596619,442.277679   C234.194687,440.754852 229.222809,439.587463 224.421387,437.927155   C220.431580,436.547455 215.113007,436.224762 214.194977,430.956543   C213.349487,426.104553 213.607590,421.114258 218.022537,417.392914   C221.868561,414.151154 225.863663,415.133942 229.933075,416.451050   C235.459045,418.239624 240.952164,420.129608 247.417160,422.297272   C246.924652,417.133942 246.804886,412.557556 245.999100,408.105347   C244.187622,398.096130 251.924133,390.938110 261.519073,394.257385   C266.239685,395.890472 268.095703,399.841339 268.000000,405.180908  z"/>
<path fill="#afddde" opacity="1.000000" stroke="none" d=" M353.006409,457.122681   C350.997528,453.532562 349.968658,456.469208 349.227600,457.560516   C346.034576,462.262573 343.101440,467.139923 340.002045,471.906891   C335.612274,478.658295 330.729401,477.812317 323.564697,473.777466   C319.080078,471.251892 318.320404,464.750275 321.682678,459.767090   C325.592102,453.973053 329.633698,448.268158 333.850677,442.189087   C327.464020,440.405457 321.290344,438.678101 315.114777,436.957611   C309.703339,435.450012 306.457031,429.128204 308.203949,423.486877   C310.162628,417.161530 315.594513,413.907440 321.269592,415.683838   C327.741058,417.709473 334.205444,419.757751 341.000214,421.899353   C341.000214,415.232056 340.971130,409.075989 341.008514,402.920319   C341.044769,396.952148 343.829681,394.111725 349.651031,394.000397   C357.449585,393.851257 361.931610,396.873108 361.928772,402.796082   C361.926086,408.378418 361.325897,413.959564 361.038239,419.543793   C360.998352,420.318237 361.243408,421.107422 361.424774,422.361298   C367.850128,420.186188 373.966095,418.083221 380.104187,416.046906   C386.615723,413.886658 392.625519,417.464783 393.969116,424.244171   C395.434906,431.640198 393.017395,435.326904 385.669128,437.015320   C380.777100,438.139374 375.898315,439.322235 371.024719,440.523773   C370.452301,440.664917 369.950348,441.091736 369.178528,441.516693   C373.252563,447.335388 377.382690,452.997345 381.245544,458.836060   C383.747559,462.617889 384.425293,467.014038 381.637177,470.750885   C377.489380,476.310120 371.889191,478.239410 367.249878,475.849365   C365.087036,474.735138 363.378113,472.457825 361.873413,470.406891   C358.789978,466.204163 355.983276,461.798431 353.006409,457.122681  z"/>
<path fill="#ffffff" opacity="1.000000" stroke="none" d=" M368.991425,320.654846   C367.818420,331.492493 361.857452,336.979858 351.454193,336.984558   C288.467712,337.012848 225.481232,337.014893 162.494781,336.982971   C151.552307,336.977417 145.026474,330.464691 145.016602,319.563385   C144.978882,277.905701 144.981277,236.247925 145.014221,194.590225   C145.023056,183.424744 151.532806,177.015060 162.838196,177.011124   C225.658035,176.989227 288.477875,176.987473 351.297729,177.012970   C362.538422,177.017517 368.977966,183.466858 368.986359,194.724167   C369.017548,236.548401 368.997223,278.372681 368.991425,320.654846  M280.859039,219.672791   C266.956573,205.558960 245.926498,205.472412 233.454727,219.477707   C220.705719,233.794296 222.785797,254.155899 238.071274,266.720062   C239.582825,267.962494 240.726242,270.433472 240.864594,272.416260   C241.245987,277.882202 240.895447,283.394379 241.031342,288.883392   C241.255280,297.928253 248.112762,304.860352 256.774628,304.980225   C265.641510,305.102875 272.734924,298.111176 272.967072,288.836182   C273.108582,283.180878 272.815002,277.509216 273.121643,271.866882   C273.213776,270.171967 274.254913,268.050720 275.561066,266.972565   C291.076477,254.165466 293.378967,236.013382 280.859039,219.672791  z"/>
<path fill="#ffffff" opacity="1.000000" stroke="none" d=" M180.993835,122.112915   C185.060638,109.836151 190.937302,98.923874 199.688599,89.950912   C211.341629,78.002701 225.548904,70.184166 242.004135,67.063759   C264.748962,62.750652 285.776276,67.710388 304.306396,81.235069   C320.862122,93.318710 330.868469,110.073036 334.984650,130.226074   C335.408295,132.300293 335.824738,134.398315 335.959503,136.503540   C336.127563,139.129333 335.999878,141.774078 335.999878,144.703522   C283.297028,144.703522 230.933914,144.703522 177.040207,144.703522   C178.392929,137.093323 179.687546,129.810074 180.993835,122.112915  z"/>
<path fill="#afddde" opacity="1.000000" stroke="none" d=" M281.086792,219.951599   C293.378967,236.013382 291.076477,254.165466 275.561066,266.972565   C274.254913,268.050720 273.213776,270.171967 273.121643,271.866882   C272.815002,277.509216 273.108582,283.180878 272.967072,288.836182   C272.734924,298.111176 265.641510,305.102875 256.774628,304.980225   C248.112762,304.860352 241.255280,297.928253 241.031342,288.883392   C240.895447,283.394379 241.245987,277.882202 240.864594,272.416260   C240.726242,270.433472 239.582825,267.962494 238.071274,266.720062   C222.785797,254.155899 220.705719,233.794296 233.454727,219.477707   C245.926498,205.472412 266.956573,205.558960 281.086792,219.951599  z"/>
</svg>